<svg xmlns="http://www.w3.org/2000/svg" viewBox="0 0 100 100">
  <!-- ─── BLUE main diagonal bar ─── -->
  <polygon points="12,12 42,12 88,58 88,88 58,88 12,42" fill="#0058FF"/>
  <!-- inner cutout to create the channel -->
  <polygon points="12,12 32,12 78,58 88,58 88,70 68,70 22,24 12,24" fill="none"/>
  
  <!-- ─── GREEN top-right triangle ─── -->
  <polygon points="58,12 88,12 88,42" fill="#5AFF00"/>

  <!-- ─── PINK bottom-left triangle ─── -->
  <polygon points="12,58 42,88 12,88" fill="#FF00A6"/>

  <!-- ─── Corner dots ─── -->
  <rect x="13" y="13" width="13" height="13" rx="3" fill="#0058FF"/>
  <rect x="74" y="13" width="13" height="13" rx="3" fill="#5AFF00"/>
  <rect x="13" y="74" width="13" height="13" rx="3" fill="#FF00A6"/>
  <rect x="74" y="74" width="13" height="13" rx="3" fill="#0058FF"/>
</svg>